<svg width="250" height="70" viewBox="0 0 250 70" fill="none" xmlns="http://www.w3.org/2000/svg">
<rect width="250" height="70" fill="white"/>
<path fill-rule="evenodd" clip-rule="evenodd" d="M84.9223 47.6863L84.9185 47.6849C83.1466 47.0475 81.7083 46.183 80.6605 45.0575L80.2224 44.587L82.1065 40.8032L82.9941 41.7101C83.7813 42.5144 84.8551 43.1993 86.2511 43.7434C87.6385 44.2602 89.0673 44.518 90.5421 44.518C92.6773 44.518 94.116 44.1193 95.0028 43.4664C95.8979 42.7834 96.3013 41.9629 96.3013 40.946C96.3013 40.1352 96.0637 39.581 95.6556 39.18L95.6492 39.1738L95.6429 39.1673C95.1578 38.6717 94.5456 38.2826 93.7856 38.0098L93.7754 38.0061L93.7652 38.0022C92.9418 37.6839 91.766 37.3321 90.2202 36.9492L90.2112 36.9469C88.327 36.4595 86.7988 35.9901 85.64 35.5367L85.6322 35.5336L85.6244 35.5304C84.383 35.0177 83.3106 34.246 82.4151 33.2234L82.4106 33.2183L82.4062 33.2132C81.4461 32.0835 81.0154 30.6035 81.0154 28.879C81.0154 27.4294 81.3927 26.0963 82.1514 24.904C82.9271 23.6606 84.0963 22.7094 85.5931 22.0238C87.1156 21.3265 88.9546 21 91.0741 21C92.5774 21 94.0456 21.2173 95.4759 21.6522C96.925 22.0616 98.2009 22.6441 99.2889 23.4117L99.8928 23.8377L98.2954 27.6895L97.3811 27.0739C96.4181 26.4254 95.393 25.9466 94.3032 25.6348L94.2951 25.6325L94.287 25.63C93.1825 25.2915 92.1125 25.1259 91.0741 25.1259C88.9957 25.1259 87.5852 25.5451 86.6992 26.2385L86.6969 26.2403C85.8264 26.9171 85.4213 27.7494 85.4213 28.8065C85.4213 29.619 85.6493 30.195 86.0449 30.6218C86.5539 31.1181 87.1905 31.519 87.9723 31.8151C88.86 32.1168 90.0585 32.4587 91.5764 32.8404C93.4129 33.3035 94.9219 33.7735 96.0876 34.254C97.3555 34.7418 98.435 35.5039 99.3126 36.5349C100.276 37.6415 100.707 39.1004 100.707 40.8011C100.707 42.2583 100.314 43.6049 99.5318 44.8185C98.7523 46.0405 97.5682 46.9766 96.0532 47.6587L96.0473 47.6614L96.0413 47.664C94.5022 48.3303 92.6586 48.6439 90.5421 48.6439C88.5981 48.6439 86.7232 48.3252 84.9223 47.6863ZM97.8851 26.3062L97.8839 26.3054L98.7702 24.1682C97.7772 23.4676 96.595 22.924 95.2236 22.5375C93.8759 22.1268 92.4927 21.9215 91.0741 21.9215C89.0407 21.9215 87.3383 22.2355 85.967 22.8636C84.5956 23.4917 83.5789 24.3373 82.9169 25.4002C82.2549 26.439 81.9238 27.5986 81.9238 28.879C81.9238 30.4493 82.314 31.6935 83.0942 32.6115C83.8981 33.5295 84.8557 34.218 85.967 34.677C87.0783 35.1118 88.5678 35.5708 90.4357 36.054C91.9962 36.4405 93.2139 36.8029 94.0887 37.1411C94.9635 37.4552 95.6965 37.9142 96.2876 38.5181C96.9023 39.1221 97.2097 39.9314 97.2097 40.946C97.2097 42.2747 96.6541 43.3619 95.5428 44.2074C94.5272 44.9581 93.0476 45.3657 91.1039 45.4304C93.0483 45.3659 94.5285 44.9583 95.5444 44.2074C96.6556 43.3619 97.2113 42.2747 97.2113 40.946C97.2113 39.9314 96.9039 39.1221 96.2892 38.5181C95.6981 37.9142 94.9651 37.4552 94.0903 37.1411C93.2154 36.8029 91.9978 36.4405 90.4373 36.054C88.5694 35.5708 87.0798 35.1118 85.9685 34.677C84.8573 34.218 83.8997 33.5295 83.0958 32.6115C82.3155 31.6935 81.9254 30.4493 81.9254 28.879C81.9254 27.5986 82.2564 26.439 82.9185 25.4002C83.5805 24.3373 84.5972 23.4917 85.9685 22.8636C87.3399 22.2355 89.0423 21.9215 91.0757 21.9215C92.4943 21.9215 93.8775 22.1268 95.2252 22.5375C96.5965 22.924 97.7788 23.4676 98.7718 24.1682L97.8851 26.3062ZM117.022 21.2174H121.463V44.2643H135.366V48.4265H117.022V21.2174ZM117.93 47.505H117.932V22.1389H117.93V47.505ZM150.32 21.2174H154.761V48.4265H150.32V21.2174ZM196 21.2174V48.4265H192.486L177.876 29.5843V48.4265H173.435V21.2174H176.948L191.594 40.0642V21.2174H196ZM174.345 47.505V22.1389H174.343V47.505H174.345ZM192.928 47.505L176.969 26.9242V26.9222L192.929 47.505H192.928ZM192.504 42.7217V22.1389H192.502V42.7197L192.504 42.7217ZM232.184 33.9005H236.519V44.9126L236.212 45.1877C234.957 46.3128 233.48 47.1682 231.793 47.7598C230.109 48.3504 228.342 48.6439 226.495 48.6439C223.874 48.6439 221.487 48.0558 219.354 46.8624C217.227 45.6724 215.547 44.0219 214.328 41.9206L214.325 41.9164C213.105 39.7856 212.5 37.4136 212.5 34.8219C212.5 32.2305 213.105 29.8687 214.328 27.7598C215.546 25.6357 217.225 23.9724 219.354 22.7815C221.488 21.5874 223.888 21 226.531 21C228.521 21 230.37 21.3303 232.07 22.0032C233.779 22.6557 235.235 23.6408 236.423 24.96L237 25.601L234.132 28.5955L233.48 27.9377C231.704 26.1454 229.448 25.2346 226.637 25.2346C224.77 25.2346 223.102 25.6596 221.616 26.4959L221.612 26.4982C220.151 27.3106 219.007 28.4464 218.167 29.9199L218.164 29.9251C217.33 31.368 216.906 32.9927 216.906 34.8219C216.906 36.6512 217.33 38.2759 218.164 39.7188C219.004 41.1708 220.152 42.3116 221.621 43.1507C223.081 43.9843 224.734 44.4093 226.602 44.4093C228.812 44.4093 230.659 43.8906 232.184 42.889V33.9005ZM233.092 43.3739C231.74 44.3685 230.162 44.9839 228.356 45.2203C230.162 44.9841 231.741 44.3688 233.094 43.3739V34.8219H233.092V43.3739ZM233.937 27.1038C232.004 25.2433 229.57 24.3131 226.637 24.3131H226.639C229.665 24.3131 232.159 25.3033 234.121 27.2838L234.121 27.2846C234.06 27.2234 233.999 27.1631 233.937 27.1038ZM226.603 45.3308C226.613 45.3308 226.623 45.3307 226.633 45.3307C226.623 45.3307 226.613 45.3308 226.603 45.3308H226.603ZM151.228 22.1389V47.505H151.23V22.1389H151.228ZM13.011 43.5623L13.0137 49L21.4691 48.9958L42.5659 34.9926L21.4555 21.0106L13 21.0148L13.0027 26.4525L19.8561 26.449L32.7629 34.9975L19.8645 43.5589L13.011 43.5623Z" fill="#0596FF"/>
</svg>
